<?xml version="1.0" standalone="no"?>
<!DOCTYPE svg PUBLIC "-//W3C//DTD SVG 20010904//EN"
 "http://www.w3.org/TR/2001/REC-SVG-20010904/DTD/svg10.dtd">
<svg version="1.0" xmlns="http://www.w3.org/2000/svg"
 width="284.000000pt" height="177.000000pt" viewBox="0 0 284.000000 177.000000"
 preserveAspectRatio="xMidYMid meet">

<g transform="translate(0.000000,177.000000) scale(0.100000,-0.100000)"
fill="#000000" stroke="none">
<path d="M644 1611 c-23 -10 -54 -36 -70 -57 l-29 -37 0 -357 0 -357 29 -37
c42 -56 93 -76 199 -76 l87 0 0 -108 c0 -93 3 -111 18 -125 39 -36 62 -23 192
108 l125 125 300 0 c269 0 304 2 340 19 57 25 102 81 110 133 3 24 5 183 3
354 -3 309 -3 311 -27 346 -13 19 -40 46 -59 59 l-36 24 -570 2 c-541 3 -573
2 -612 -16z"/>
<path d="M2048 973 c-4 -191 -14 -227 -84 -297 -79 -78 -91 -81 -430 -84
l-301 -3 -53 -54 c-51 -52 -53 -55 -41 -83 15 -37 57 -77 94 -91 17 -7 123
-11 270 -11 l241 0 106 -105 c113 -110 134 -121 170 -85 17 17 20 33 20 104
l0 84 79 3 c88 4 118 19 159 79 22 32 22 39 22 315 0 276 0 283 -23 316 -31
48 -98 79 -168 79 l-57 0 -4 -167z"/>
</g>
</svg>
