<?xml version="1.0" encoding="utf-8"?>
<!-- Generator: Adobe Illustrator 23.0.6, SVG Export Plug-In . SVG Version: 6.00 Build 0)  -->
<svg version="1.1" id="Capa_1" xmlns="http://www.w3.org/2000/svg" xmlns:xlink="http://www.w3.org/1999/xlink" x="0px" y="0px"
	 viewBox="0 0 612 612" style="enable-background:new 0 0 612 612;" xml:space="preserve">
<style type="text/css">
	.st0{fill:#FF0000;}
</style>
<g>
	<g id="_x38__3_">
		<g>
			<path class="st0" d="M89.6,89.6c-119.5,119.5-119.5,313.2,0,432.7s313.2,119.5,432.7,0s119.5-313.3,0-432.7S209.1-29.9,89.6,89.6
				z M495.3,495.3c-104.6,104.6-274.1,104.6-378.7,0s-104.6-274.1,0-378.7s274.1-104.6,378.7,0S599.9,390.8,495.3,495.3z
				 M373.6,211.3L306,279l-67.6-67.6c-7.5-7.5-19.6-7.5-27,0c-7.5,7.5-7.5,19.6,0,27L279,306l-67.6,67.6c-7.5,7.5-7.5,19.6,0,27
				c7.5,7.5,19.6,7.5,27,0L306,333l67.6,67.6c7.5,7.5,19.6,7.5,27,0s7.5-19.6,0-27L333,306l67.6-67.6c7.5-7.5,7.5-19.6,0-27
				S381.1,203.9,373.6,211.3z"/>
		</g>
	</g>
</g>
</svg>
