<?xml version="1.0" standalone="no"?>
<!DOCTYPE svg PUBLIC "-//W3C//DTD SVG 20010904//EN"
 "http://www.w3.org/TR/2001/REC-SVG-20010904/DTD/svg10.dtd">
<svg version="1.0" xmlns="http://www.w3.org/2000/svg"
 width="225.000000pt" height="225.000000pt" viewBox="0 0 225.000000 225.000000"
 preserveAspectRatio="xMidYMid meet">

<g transform="translate(0.000000,225.000000) scale(0.100000,-0.100000)"
fill="#000000" stroke="none">
<path d="M607 1960 c-68 -12 -168 -61 -221 -110 -187 -172 -225 -475 -88 -685
31 -48 813 -875 827 -875 14 0 796 827 827 875 228 351 -48 852 -439 795 -124
-18 -182 -51 -303 -174 l-84 -86 -101 99 c-111 109 -171 143 -276 160 -71 12
-74 12 -142 1z"/>
</g>
</svg>
