<?xml version="1.0" encoding="utf-8"?>
<!-- Generator: Adobe Illustrator 23.0.6, SVG Export Plug-In . SVG Version: 6.00 Build 0)  -->
<svg version="1.1" id="Capa_1" xmlns="http://www.w3.org/2000/svg" xmlns:xlink="http://www.w3.org/1999/xlink" x="0px" y="0px"
	 viewBox="0 0 512 512" style="enable-background:new 0 0 512 512;" xml:space="preserve">
<style type="text/css">
	.st0{fill:#70C461;}
</style>
<g>
	<g>
		<path class="st0" d="M256,512c-68.4,0-132.7-26.6-181-75C26.6,388.7,0,324.4,0,256S26.6,123.3,75,75C123.3,26.6,187.6,0,256,0
			s132.7,26.6,181,75c48.4,48.4,75,112.6,75,181s-26.6,132.7-75,181C388.7,485.4,324.4,512,256,512z M256,30
			c-60.4,0-117.1,23.5-159.8,66.2S30,195.6,30,256s23.5,117.1,66.2,159.8S195.6,482,256,482s117.1-23.5,159.8-66.2
			S482,316.4,482,256s-23.5-117.1-66.2-159.8S316.4,30,256,30z"/>
	</g>
	<g>
		<path class="st0" d="M255.6,405.9l-121.1-122c-30-30-30-78.9,0-109c30.1-30.1,79-30.1,109,0l12.5,12.5l12.5-12.5
			c30.1-30.1,79-30.1,109,0c30.1,30.1,30.1,79,0,109L255.6,405.9z M189,182.4c-12.6,0-24.4,4.9-33.3,13.8s-13.8,20.7-13.8,33.3
			s4.9,24.4,13.8,33.3l99.9,100.6l100.6-100.6c18.4-18.4,18.4-48.2,0-66.6c-8.9-8.9-20.7-13.8-33.3-13.8c-12.6,0-24.4,4.9-33.3,13.8
			L256,229.8l-33.7-33.7C213.4,187.3,201.6,182.4,189,182.4z"/>
	</g>
</g>
</svg>
