<?xml version="1.0" standalone="no"?>
<!DOCTYPE svg PUBLIC "-//W3C//DTD SVG 20010904//EN"
 "http://www.w3.org/TR/2001/REC-SVG-20010904/DTD/svg10.dtd">
<svg version="1.0" xmlns="http://www.w3.org/2000/svg"
 width="225.000000pt" height="225.000000pt" viewBox="0 0 225.000000 225.000000"
 preserveAspectRatio="xMidYMid meet">

<g transform="translate(0.000000,225.000000) scale(0.100000,-0.100000)"
fill="#000000" stroke="none">
<path d="M1015 2090 c-109 -22 -219 -85 -303 -173 -153 -162 -187 -420 -82
-627 61 -120 199 -235 338 -279 97 -32 258 -27 342 9 236 102 370 293 370 528
0 207 -121 398 -310 490 -119 59 -236 76 -355 52z"/>
<path d="M1510 1036 c-14 -7 -48 -27 -77 -44 -183 -109 -482 -98 -663 24 -41
28 -64 30 -116 8 -159 -67 -329 -236 -414 -413 -79 -163 -118 -394 -75 -441
18 -20 23 -20 955 -20 1083 0 982 -10 981 102 -1 131 -51 294 -132 430 -74
125 -230 273 -354 335 -61 31 -78 34 -105 19z"/>
</g>
</svg>
